<svg width="28" height="28" viewBox="0 0 28 28" fill="none" xmlns="http://www.w3.org/2000/svg">
<circle cx="14" cy="14" r="14" fill="#4D74F9" fill-opacity="0.15"/>
<path d="M14 14.875C16.1738 14.875 17.9375 13.1113 17.9375 10.9375C17.9375 8.76367 16.1738 7 14 7C11.8262 7 10.0625 8.76367 10.0625 10.9375C10.0625 13.1113 11.8262 14.875 14 14.875ZM17.5 15.75H15.9934C15.3863 16.0289 14.7109 16.1875 14 16.1875C13.2891 16.1875 12.6164 16.0289 12.0066 15.75H10.5C8.5668 15.75 7 17.3168 7 19.25V19.6875C7 20.4121 7.58789 21 8.3125 21H19.6875C20.4121 21 21 20.4121 21 19.6875V19.25C21 17.3168 19.4332 15.75 17.5 15.75Z" fill="#4D74F9"/>
</svg>
